<mxfile host="app.diagrams.net" modified="2021-02-17T09:23:12.876Z" agent="5.0 (Windows NT 10.0; Win64; x64) AppleWebKit/537.36 (KHTML, like Gecko) Chrome/88.0.4324.150 Safari/537.36" etag="6NNIDUgwKyplBnNUAnZ7" version="14.1.8" type="github" pages="2">
  <diagram id="Ek_pWGYB22L2BVswsfD9" name="Page-1">
    <mxGraphModel dx="1117" dy="601" grid="1" gridSize="10" guides="1" tooltips="1" connect="1" arrows="1" fold="1" page="1" pageScale="1" pageWidth="827" pageHeight="1169" math="0" shadow="0">
      <root>
        <mxCell id="0" />
        <mxCell id="1" parent="0" />
        <mxCell id="re8lVaWSiEf7pyco6TmE-6" value="" style="edgeStyle=orthogonalEdgeStyle;rounded=0;orthogonalLoop=1;jettySize=auto;html=1;" edge="1" parent="1" source="re8lVaWSiEf7pyco6TmE-4" target="re8lVaWSiEf7pyco6TmE-5">
          <mxGeometry relative="1" as="geometry" />
        </mxCell>
        <mxCell id="re8lVaWSiEf7pyco6TmE-4" value="Pemanenan buah pala&amp;nbsp;" style="rounded=1;whiteSpace=wrap;html=1;" vertex="1" parent="1">
          <mxGeometry x="380" y="20" width="120" height="60" as="geometry" />
        </mxCell>
        <mxCell id="re8lVaWSiEf7pyco6TmE-8" value="" style="edgeStyle=orthogonalEdgeStyle;rounded=0;orthogonalLoop=1;jettySize=auto;html=1;" edge="1" parent="1" source="re8lVaWSiEf7pyco6TmE-5" target="re8lVaWSiEf7pyco6TmE-7">
          <mxGeometry relative="1" as="geometry" />
        </mxCell>
        <mxCell id="re8lVaWSiEf7pyco6TmE-55" style="edgeStyle=orthogonalEdgeStyle;rounded=0;orthogonalLoop=1;jettySize=auto;html=1;exitX=1;exitY=0.5;exitDx=0;exitDy=0;entryX=0;entryY=0.5;entryDx=0;entryDy=0;" edge="1" parent="1" source="re8lVaWSiEf7pyco6TmE-5" target="re8lVaWSiEf7pyco6TmE-54">
          <mxGeometry relative="1" as="geometry">
            <Array as="points">
              <mxPoint x="530" y="140" />
              <mxPoint x="530" y="250" />
            </Array>
          </mxGeometry>
        </mxCell>
        <mxCell id="re8lVaWSiEf7pyco6TmE-5" value="Pemisahan Daging buah pala&amp;nbsp;" style="whiteSpace=wrap;html=1;rounded=1;" vertex="1" parent="1">
          <mxGeometry x="380" y="110" width="120" height="60" as="geometry" />
        </mxCell>
        <mxCell id="re8lVaWSiEf7pyco6TmE-10" value="" style="edgeStyle=orthogonalEdgeStyle;rounded=0;orthogonalLoop=1;jettySize=auto;html=1;" edge="1" parent="1" source="re8lVaWSiEf7pyco6TmE-7" target="re8lVaWSiEf7pyco6TmE-9">
          <mxGeometry relative="1" as="geometry" />
        </mxCell>
        <mxCell id="re8lVaWSiEf7pyco6TmE-7" value="Sortasi pala segar" style="whiteSpace=wrap;html=1;rounded=1;" vertex="1" parent="1">
          <mxGeometry x="380" y="210" width="120" height="60" as="geometry" />
        </mxCell>
        <mxCell id="re8lVaWSiEf7pyco6TmE-12" value="" style="edgeStyle=orthogonalEdgeStyle;rounded=0;orthogonalLoop=1;jettySize=auto;html=1;entryX=0.5;entryY=0;entryDx=0;entryDy=0;" edge="1" parent="1" source="re8lVaWSiEf7pyco6TmE-9" target="re8lVaWSiEf7pyco6TmE-13">
          <mxGeometry relative="1" as="geometry">
            <mxPoint x="240.0000000000001" y="420" as="targetPoint" />
            <Array as="points">
              <mxPoint x="440" y="380" />
              <mxPoint x="270" y="380" />
            </Array>
          </mxGeometry>
        </mxCell>
        <mxCell id="re8lVaWSiEf7pyco6TmE-9" value="Pemisahan pala dan fuli&amp;nbsp;" style="whiteSpace=wrap;html=1;rounded=1;" vertex="1" parent="1">
          <mxGeometry x="380" y="300" width="120" height="60" as="geometry" />
        </mxCell>
        <mxCell id="re8lVaWSiEf7pyco6TmE-20" value="" style="edgeStyle=orthogonalEdgeStyle;rounded=0;orthogonalLoop=1;jettySize=auto;html=1;entryX=0.5;entryY=0;entryDx=0;entryDy=0;" edge="1" parent="1" source="re8lVaWSiEf7pyco6TmE-13" target="re8lVaWSiEf7pyco6TmE-23">
          <mxGeometry relative="1" as="geometry">
            <mxPoint x="270" y="590" as="targetPoint" />
          </mxGeometry>
        </mxCell>
        <mxCell id="re8lVaWSiEf7pyco6TmE-13" value="Pala&amp;nbsp;" style="ellipse;whiteSpace=wrap;html=1;aspect=fixed;" vertex="1" parent="1">
          <mxGeometry x="230" y="400" width="80" height="80" as="geometry" />
        </mxCell>
        <mxCell id="re8lVaWSiEf7pyco6TmE-14" value="Fuli&amp;nbsp;" style="ellipse;whiteSpace=wrap;html=1;aspect=fixed;" vertex="1" parent="1">
          <mxGeometry x="550" y="400" width="80" height="80" as="geometry" />
        </mxCell>
        <mxCell id="re8lVaWSiEf7pyco6TmE-17" value="" style="edgeStyle=orthogonalEdgeStyle;rounded=0;orthogonalLoop=1;jettySize=auto;html=1;exitX=0.5;exitY=1;exitDx=0;exitDy=0;entryX=0.5;entryY=0;entryDx=0;entryDy=0;" edge="1" parent="1" source="re8lVaWSiEf7pyco6TmE-9" target="re8lVaWSiEf7pyco6TmE-14">
          <mxGeometry relative="1" as="geometry">
            <mxPoint x="250.0000000000001" y="400" as="sourcePoint" />
            <mxPoint x="350" y="490" as="targetPoint" />
            <Array as="points">
              <mxPoint x="440" y="380" />
              <mxPoint x="590" y="380" />
            </Array>
          </mxGeometry>
        </mxCell>
        <mxCell id="re8lVaWSiEf7pyco6TmE-25" value="" style="edgeStyle=orthogonalEdgeStyle;rounded=0;orthogonalLoop=1;jettySize=auto;html=1;" edge="1" parent="1" source="re8lVaWSiEf7pyco6TmE-23" target="re8lVaWSiEf7pyco6TmE-24">
          <mxGeometry relative="1" as="geometry" />
        </mxCell>
        <mxCell id="re8lVaWSiEf7pyco6TmE-23" value="Pengeringan Pala" style="rounded=1;whiteSpace=wrap;html=1;" vertex="1" parent="1">
          <mxGeometry x="210" y="510" width="120" height="60" as="geometry" />
        </mxCell>
        <mxCell id="re8lVaWSiEf7pyco6TmE-27" value="" style="edgeStyle=orthogonalEdgeStyle;rounded=0;orthogonalLoop=1;jettySize=auto;html=1;" edge="1" parent="1" source="re8lVaWSiEf7pyco6TmE-24" target="re8lVaWSiEf7pyco6TmE-26">
          <mxGeometry relative="1" as="geometry" />
        </mxCell>
        <mxCell id="re8lVaWSiEf7pyco6TmE-24" value="Pengukuran kadar air" style="rounded=1;whiteSpace=wrap;html=1;" vertex="1" parent="1">
          <mxGeometry x="210" y="590" width="120" height="60" as="geometry" />
        </mxCell>
        <mxCell id="re8lVaWSiEf7pyco6TmE-35" value="" style="edgeStyle=orthogonalEdgeStyle;rounded=0;orthogonalLoop=1;jettySize=auto;html=1;" edge="1" parent="1" source="re8lVaWSiEf7pyco6TmE-26" target="re8lVaWSiEf7pyco6TmE-34">
          <mxGeometry relative="1" as="geometry" />
        </mxCell>
        <mxCell id="re8lVaWSiEf7pyco6TmE-26" value="Pengelompokan mutu pala&amp;nbsp;" style="rounded=1;whiteSpace=wrap;html=1;" vertex="1" parent="1">
          <mxGeometry x="210" y="680" width="120" height="60" as="geometry" />
        </mxCell>
        <mxCell id="re8lVaWSiEf7pyco6TmE-28" value="" style="edgeStyle=orthogonalEdgeStyle;rounded=0;orthogonalLoop=1;jettySize=auto;html=1;" edge="1" parent="1" source="re8lVaWSiEf7pyco6TmE-29" target="re8lVaWSiEf7pyco6TmE-31">
          <mxGeometry relative="1" as="geometry" />
        </mxCell>
        <mxCell id="re8lVaWSiEf7pyco6TmE-29" value="Pengeringan Fuli" style="rounded=1;whiteSpace=wrap;html=1;" vertex="1" parent="1">
          <mxGeometry x="530" y="510" width="120" height="60" as="geometry" />
        </mxCell>
        <mxCell id="re8lVaWSiEf7pyco6TmE-30" value="" style="edgeStyle=orthogonalEdgeStyle;rounded=0;orthogonalLoop=1;jettySize=auto;html=1;" edge="1" parent="1" source="re8lVaWSiEf7pyco6TmE-31" target="re8lVaWSiEf7pyco6TmE-32">
          <mxGeometry relative="1" as="geometry" />
        </mxCell>
        <mxCell id="re8lVaWSiEf7pyco6TmE-31" value="Pengukuran kadar air" style="rounded=1;whiteSpace=wrap;html=1;" vertex="1" parent="1">
          <mxGeometry x="530" y="590" width="120" height="60" as="geometry" />
        </mxCell>
        <mxCell id="re8lVaWSiEf7pyco6TmE-53" style="edgeStyle=orthogonalEdgeStyle;rounded=0;orthogonalLoop=1;jettySize=auto;html=1;exitX=0.5;exitY=1;exitDx=0;exitDy=0;entryX=0.5;entryY=0;entryDx=0;entryDy=0;" edge="1" parent="1" source="re8lVaWSiEf7pyco6TmE-32" target="re8lVaWSiEf7pyco6TmE-51">
          <mxGeometry relative="1" as="geometry" />
        </mxCell>
        <mxCell id="re8lVaWSiEf7pyco6TmE-32" value="Pengelompokan mutu fuli" style="rounded=1;whiteSpace=wrap;html=1;" vertex="1" parent="1">
          <mxGeometry x="530" y="680" width="120" height="60" as="geometry" />
        </mxCell>
        <mxCell id="re8lVaWSiEf7pyco6TmE-33" value="" style="endArrow=classic;html=1;entryX=0.5;entryY=0;entryDx=0;entryDy=0;" edge="1" parent="1" target="re8lVaWSiEf7pyco6TmE-29">
          <mxGeometry width="50" height="50" relative="1" as="geometry">
            <mxPoint x="590" y="480" as="sourcePoint" />
            <mxPoint x="640" y="430" as="targetPoint" />
          </mxGeometry>
        </mxCell>
        <mxCell id="re8lVaWSiEf7pyco6TmE-37" value="" style="edgeStyle=orthogonalEdgeStyle;rounded=0;orthogonalLoop=1;jettySize=auto;html=1;entryX=0.5;entryY=0;entryDx=0;entryDy=0;" edge="1" parent="1" source="re8lVaWSiEf7pyco6TmE-34" target="re8lVaWSiEf7pyco6TmE-41">
          <mxGeometry relative="1" as="geometry">
            <mxPoint x="374" y="850" as="targetPoint" />
          </mxGeometry>
        </mxCell>
        <mxCell id="re8lVaWSiEf7pyco6TmE-43" value="" style="edgeStyle=orthogonalEdgeStyle;rounded=0;orthogonalLoop=1;jettySize=auto;html=1;entryX=0.5;entryY=0;entryDx=0;entryDy=0;" edge="1" parent="1" source="re8lVaWSiEf7pyco6TmE-34" target="re8lVaWSiEf7pyco6TmE-44">
          <mxGeometry relative="1" as="geometry">
            <mxPoint x="150.0000000000001" y="800" as="targetPoint" />
          </mxGeometry>
        </mxCell>
        <mxCell id="re8lVaWSiEf7pyco6TmE-34" value="Pemecahan Cangkang" style="rhombus;whiteSpace=wrap;html=1;rounded=0;" vertex="1" parent="1">
          <mxGeometry x="220" y="760" width="100" height="80" as="geometry" />
        </mxCell>
        <mxCell id="re8lVaWSiEf7pyco6TmE-46" style="edgeStyle=orthogonalEdgeStyle;rounded=0;orthogonalLoop=1;jettySize=auto;html=1;exitX=0.5;exitY=1;exitDx=0;exitDy=0;" edge="1" parent="1" source="re8lVaWSiEf7pyco6TmE-41" target="re8lVaWSiEf7pyco6TmE-45">
          <mxGeometry relative="1" as="geometry" />
        </mxCell>
        <mxCell id="re8lVaWSiEf7pyco6TmE-41" value="Biji Pala" style="ellipse;whiteSpace=wrap;html=1;aspect=fixed;rounded=0;" vertex="1" parent="1">
          <mxGeometry x="340" y="820" width="80" height="80" as="geometry" />
        </mxCell>
        <mxCell id="re8lVaWSiEf7pyco6TmE-50" style="edgeStyle=orthogonalEdgeStyle;rounded=0;orthogonalLoop=1;jettySize=auto;html=1;exitX=0.5;exitY=1;exitDx=0;exitDy=0;entryX=0.5;entryY=0;entryDx=0;entryDy=0;" edge="1" parent="1" source="re8lVaWSiEf7pyco6TmE-44" target="re8lVaWSiEf7pyco6TmE-49">
          <mxGeometry relative="1" as="geometry" />
        </mxCell>
        <mxCell id="re8lVaWSiEf7pyco6TmE-44" value="Pala" style="ellipse;whiteSpace=wrap;html=1;aspect=fixed;rounded=0;" vertex="1" parent="1">
          <mxGeometry x="120" y="820" width="80" height="80" as="geometry" />
        </mxCell>
        <mxCell id="re8lVaWSiEf7pyco6TmE-48" value="" style="edgeStyle=orthogonalEdgeStyle;rounded=0;orthogonalLoop=1;jettySize=auto;html=1;" edge="1" parent="1" source="re8lVaWSiEf7pyco6TmE-45" target="re8lVaWSiEf7pyco6TmE-47">
          <mxGeometry relative="1" as="geometry" />
        </mxCell>
        <mxCell id="re8lVaWSiEf7pyco6TmE-45" value="Pengelompokan mutu biji pala&amp;nbsp;" style="rounded=1;whiteSpace=wrap;html=1;" vertex="1" parent="1">
          <mxGeometry x="320" y="930" width="120" height="60" as="geometry" />
        </mxCell>
        <mxCell id="re8lVaWSiEf7pyco6TmE-47" value="Pengemasan, Pelabelan &amp;amp; Penyimpanan Biji Pala" style="rounded=1;whiteSpace=wrap;html=1;" vertex="1" parent="1">
          <mxGeometry x="320" y="1010" width="120" height="60" as="geometry" />
        </mxCell>
        <mxCell id="re8lVaWSiEf7pyco6TmE-49" value="Pengemasan, Pelabelan &amp;amp; Penyimpanan Pala" style="rounded=1;whiteSpace=wrap;html=1;" vertex="1" parent="1">
          <mxGeometry x="100" y="1010" width="120" height="60" as="geometry" />
        </mxCell>
        <mxCell id="re8lVaWSiEf7pyco6TmE-51" value="Pengemasan, Pelabelan &amp;amp; Penyimpanan fuli" style="rounded=1;whiteSpace=wrap;html=1;" vertex="1" parent="1">
          <mxGeometry x="530" y="1010" width="120" height="60" as="geometry" />
        </mxCell>
        <mxCell id="re8lVaWSiEf7pyco6TmE-54" value="Daging Pala" style="ellipse;whiteSpace=wrap;html=1;aspect=fixed;rounded=0;" vertex="1" parent="1">
          <mxGeometry x="570" y="210" width="80" height="80" as="geometry" />
        </mxCell>
        <mxCell id="re8lVaWSiEf7pyco6TmE-61" style="edgeStyle=orthogonalEdgeStyle;rounded=0;orthogonalLoop=1;jettySize=auto;html=1;exitX=0.5;exitY=1;exitDx=0;exitDy=0;entryX=0.1;entryY=0.5;entryDx=0;entryDy=0;entryPerimeter=0;" edge="1" parent="1" source="re8lVaWSiEf7pyco6TmE-58" target="re8lVaWSiEf7pyco6TmE-63">
          <mxGeometry relative="1" as="geometry">
            <mxPoint x="120" y="94" as="targetPoint" />
          </mxGeometry>
        </mxCell>
        <mxCell id="re8lVaWSiEf7pyco6TmE-58" value="" style="shape=partialRectangle;whiteSpace=wrap;html=1;bottom=1;right=1;left=1;top=0;routingCenterX=-0.5;rounded=0;rotation=90;fillColor=none;strokeColor=#006633;strokeWidth=5;" vertex="1" parent="1">
          <mxGeometry x="-455.63" y="551.87" width="1096.25" height="25" as="geometry" />
        </mxCell>
        <mxCell id="re8lVaWSiEf7pyco6TmE-63" value="" style="shape=actor;whiteSpace=wrap;html=1;rounded=0;" vertex="1" parent="1">
          <mxGeometry x="20" y="547.75" width="27" height="34" as="geometry" />
        </mxCell>
        <mxCell id="re8lVaWSiEf7pyco6TmE-66" value="Petani/ &lt;br&gt;Kelompok Tani" style="text;html=1;strokeColor=none;fillColor=none;align=center;verticalAlign=middle;whiteSpace=wrap;rounded=0;" vertex="1" parent="1">
          <mxGeometry y="585" width="70" height="55" as="geometry" />
        </mxCell>
        <mxCell id="re8lVaWSiEf7pyco6TmE-68" value="SOP Pemanenan" style="text;html=1;strokeColor=none;fillColor=none;align=center;verticalAlign=middle;whiteSpace=wrap;rounded=0;" vertex="1" parent="1">
          <mxGeometry x="270" y="30" width="110" height="30" as="geometry" />
        </mxCell>
        <mxCell id="re8lVaWSiEf7pyco6TmE-71" style="edgeStyle=orthogonalEdgeStyle;rounded=0;orthogonalLoop=1;jettySize=auto;html=1;exitX=0;exitY=0.5;exitDx=0;exitDy=0;entryX=1;entryY=0.5;entryDx=0;entryDy=0;" edge="1" parent="1" source="re8lVaWSiEf7pyco6TmE-70" target="re8lVaWSiEf7pyco6TmE-4">
          <mxGeometry relative="1" as="geometry">
            <mxPoint x="500" y="51" as="targetPoint" />
            <Array as="points">
              <mxPoint x="580" y="51" />
              <mxPoint x="500" y="50" />
            </Array>
          </mxGeometry>
        </mxCell>
        <mxCell id="re8lVaWSiEf7pyco6TmE-70" value="Pengajuan Modal Panen&amp;nbsp;" style="rounded=1;whiteSpace=wrap;html=1;" vertex="1" parent="1">
          <mxGeometry x="560" y="21" width="120" height="60" as="geometry" />
        </mxCell>
        <mxCell id="re8lVaWSiEf7pyco6TmE-72" value="SOP Pengajuan Modal Panen" style="text;html=1;strokeColor=none;fillColor=none;align=center;verticalAlign=middle;whiteSpace=wrap;rounded=0;" vertex="1" parent="1">
          <mxGeometry x="680" y="36" width="110" height="30" as="geometry" />
        </mxCell>
        <mxCell id="re8lVaWSiEf7pyco6TmE-79" value="SOP Pengelompokan pala dan fuli" style="text;html=1;strokeColor=none;fillColor=none;align=center;verticalAlign=middle;whiteSpace=wrap;rounded=0;" vertex="1" parent="1">
          <mxGeometry x="380" y="695" width="110" height="30" as="geometry" />
        </mxCell>
        <mxCell id="re8lVaWSiEf7pyco6TmE-80" value="SOP Pengelompokan biji pala" style="text;html=1;strokeColor=none;fillColor=none;align=center;verticalAlign=middle;whiteSpace=wrap;rounded=0;" vertex="1" parent="1">
          <mxGeometry x="440" y="945" width="130" height="30" as="geometry" />
        </mxCell>
        <mxCell id="re8lVaWSiEf7pyco6TmE-81" value="SOP Pengemasan, pelabelan dan penyimpanan" style="text;html=1;strokeColor=none;fillColor=none;align=center;verticalAlign=middle;whiteSpace=wrap;rounded=0;" vertex="1" parent="1">
          <mxGeometry x="620" y="1080" width="130" height="30" as="geometry" />
        </mxCell>
        <mxCell id="re8lVaWSiEf7pyco6TmE-82" value="SOP Pengemasan, pelabelan dan penyimpanan" style="text;html=1;strokeColor=none;fillColor=none;align=center;verticalAlign=middle;whiteSpace=wrap;rounded=0;" vertex="1" parent="1">
          <mxGeometry x="400" y="1080" width="130" height="30" as="geometry" />
        </mxCell>
        <mxCell id="re8lVaWSiEf7pyco6TmE-83" value="SOP Pengemasan, pelabelan dan penyimpanan" style="text;html=1;strokeColor=none;fillColor=none;align=center;verticalAlign=middle;whiteSpace=wrap;rounded=0;" vertex="1" parent="1">
          <mxGeometry x="170" y="1080" width="130" height="30" as="geometry" />
        </mxCell>
      </root>
    </mxGraphModel>
  </diagram>
  <diagram id="7XaVt_VRPbeBqnbbFjGH" name="Page-2">
    <mxGraphModel dx="203" dy="599" grid="1" gridSize="10" guides="1" tooltips="1" connect="1" arrows="1" fold="1" page="1" pageScale="1" pageWidth="827" pageHeight="1169" math="0" shadow="0">
      <root>
        <mxCell id="k2lOzBCthUA0DbRwTOOI-0" />
        <mxCell id="k2lOzBCthUA0DbRwTOOI-1" parent="k2lOzBCthUA0DbRwTOOI-0" />
        <mxCell id="QGE8P0rNUXDMbXsNLgXJ-0" style="edgeStyle=orthogonalEdgeStyle;rounded=0;orthogonalLoop=1;jettySize=auto;html=1;exitX=0.5;exitY=1;exitDx=0;exitDy=0;entryX=0.5;entryY=0;entryDx=0;entryDy=0;" edge="1" parent="k2lOzBCthUA0DbRwTOOI-1" source="jr0PWVAJp8uxGOUueb89-0" target="l17dxkoL9CuM4ShfzCYQ-3">
          <mxGeometry relative="1" as="geometry">
            <mxPoint x="250" y="210" as="targetPoint" />
          </mxGeometry>
        </mxCell>
        <mxCell id="jr0PWVAJp8uxGOUueb89-0" value="Pala Kering&amp;nbsp;" style="ellipse;whiteSpace=wrap;html=1;aspect=fixed;rounded=0;" vertex="1" parent="k2lOzBCthUA0DbRwTOOI-1">
          <mxGeometry x="144" y="40" width="80" height="80" as="geometry" />
        </mxCell>
        <mxCell id="QGE8P0rNUXDMbXsNLgXJ-1" style="edgeStyle=orthogonalEdgeStyle;rounded=0;orthogonalLoop=1;jettySize=auto;html=1;exitX=0.5;exitY=1;exitDx=0;exitDy=0;entryX=0.5;entryY=0;entryDx=0;entryDy=0;" edge="1" parent="k2lOzBCthUA0DbRwTOOI-1" source="jr0PWVAJp8uxGOUueb89-1" target="l17dxkoL9CuM4ShfzCYQ-3">
          <mxGeometry relative="1" as="geometry" />
        </mxCell>
        <mxCell id="jr0PWVAJp8uxGOUueb89-1" value="Biji Pala Kering" style="ellipse;whiteSpace=wrap;html=1;aspect=fixed;rounded=0;" vertex="1" parent="k2lOzBCthUA0DbRwTOOI-1">
          <mxGeometry x="394" y="40" width="80" height="80" as="geometry" />
        </mxCell>
        <mxCell id="jr0PWVAJp8uxGOUueb89-2" value="Fuli Kering" style="ellipse;whiteSpace=wrap;html=1;aspect=fixed;rounded=0;" vertex="1" parent="k2lOzBCthUA0DbRwTOOI-1">
          <mxGeometry x="644" y="40" width="80" height="80" as="geometry" />
        </mxCell>
        <mxCell id="l17dxkoL9CuM4ShfzCYQ-2" value="" style="edgeStyle=orthogonalEdgeStyle;rounded=0;orthogonalLoop=1;jettySize=auto;html=1;" edge="1" parent="k2lOzBCthUA0DbRwTOOI-1" source="l17dxkoL9CuM4ShfzCYQ-3" target="l17dxkoL9CuM4ShfzCYQ-5">
          <mxGeometry relative="1" as="geometry" />
        </mxCell>
        <mxCell id="l17dxkoL9CuM4ShfzCYQ-3" value="Pengukuran kadar air" style="rounded=1;whiteSpace=wrap;html=1;" vertex="1" parent="k2lOzBCthUA0DbRwTOOI-1">
          <mxGeometry x="220" y="230" width="120" height="60" as="geometry" />
        </mxCell>
        <mxCell id="l17dxkoL9CuM4ShfzCYQ-4" value="" style="edgeStyle=orthogonalEdgeStyle;rounded=0;orthogonalLoop=1;jettySize=auto;html=1;" edge="1" parent="k2lOzBCthUA0DbRwTOOI-1" source="l17dxkoL9CuM4ShfzCYQ-5" target="l17dxkoL9CuM4ShfzCYQ-14">
          <mxGeometry relative="1" as="geometry" />
        </mxCell>
        <mxCell id="l17dxkoL9CuM4ShfzCYQ-5" value="Pengelompokan mutu pala&amp;nbsp;" style="rounded=1;whiteSpace=wrap;html=1;" vertex="1" parent="k2lOzBCthUA0DbRwTOOI-1">
          <mxGeometry x="220" y="320" width="120" height="60" as="geometry" />
        </mxCell>
        <mxCell id="l17dxkoL9CuM4ShfzCYQ-6" value="" style="edgeStyle=orthogonalEdgeStyle;rounded=0;orthogonalLoop=1;jettySize=auto;html=1;" edge="1" parent="k2lOzBCthUA0DbRwTOOI-1" target="l17dxkoL9CuM4ShfzCYQ-9">
          <mxGeometry relative="1" as="geometry">
            <mxPoint x="600.0000000000002" y="210" as="sourcePoint" />
          </mxGeometry>
        </mxCell>
        <mxCell id="l17dxkoL9CuM4ShfzCYQ-8" value="" style="edgeStyle=orthogonalEdgeStyle;rounded=0;orthogonalLoop=1;jettySize=auto;html=1;" edge="1" parent="k2lOzBCthUA0DbRwTOOI-1" source="l17dxkoL9CuM4ShfzCYQ-9" target="l17dxkoL9CuM4ShfzCYQ-11">
          <mxGeometry relative="1" as="geometry" />
        </mxCell>
        <mxCell id="l17dxkoL9CuM4ShfzCYQ-9" value="Pengukuran kadar air" style="rounded=1;whiteSpace=wrap;html=1;" vertex="1" parent="k2lOzBCthUA0DbRwTOOI-1">
          <mxGeometry x="540" y="230" width="120" height="60" as="geometry" />
        </mxCell>
        <mxCell id="l17dxkoL9CuM4ShfzCYQ-10" style="edgeStyle=orthogonalEdgeStyle;rounded=0;orthogonalLoop=1;jettySize=auto;html=1;exitX=0.5;exitY=1;exitDx=0;exitDy=0;entryX=0.5;entryY=0;entryDx=0;entryDy=0;" edge="1" parent="k2lOzBCthUA0DbRwTOOI-1" source="l17dxkoL9CuM4ShfzCYQ-11" target="l17dxkoL9CuM4ShfzCYQ-21">
          <mxGeometry relative="1" as="geometry" />
        </mxCell>
        <mxCell id="l17dxkoL9CuM4ShfzCYQ-11" value="Pengelompokan mutu fuli" style="rounded=1;whiteSpace=wrap;html=1;" vertex="1" parent="k2lOzBCthUA0DbRwTOOI-1">
          <mxGeometry x="540" y="320" width="120" height="60" as="geometry" />
        </mxCell>
        <mxCell id="l17dxkoL9CuM4ShfzCYQ-12" value="" style="edgeStyle=orthogonalEdgeStyle;rounded=0;orthogonalLoop=1;jettySize=auto;html=1;entryX=0.5;entryY=0;entryDx=0;entryDy=0;" edge="1" parent="k2lOzBCthUA0DbRwTOOI-1" source="l17dxkoL9CuM4ShfzCYQ-14" target="l17dxkoL9CuM4ShfzCYQ-16">
          <mxGeometry relative="1" as="geometry">
            <mxPoint x="384" y="490" as="targetPoint" />
          </mxGeometry>
        </mxCell>
        <mxCell id="QGE8P0rNUXDMbXsNLgXJ-3" style="edgeStyle=orthogonalEdgeStyle;rounded=0;orthogonalLoop=1;jettySize=auto;html=1;exitX=0;exitY=0.5;exitDx=0;exitDy=0;entryX=0.5;entryY=0;entryDx=0;entryDy=0;" edge="1" parent="k2lOzBCthUA0DbRwTOOI-1" source="l17dxkoL9CuM4ShfzCYQ-14" target="QGE8P0rNUXDMbXsNLgXJ-2">
          <mxGeometry relative="1" as="geometry" />
        </mxCell>
        <mxCell id="l17dxkoL9CuM4ShfzCYQ-14" value="Pemecahan Cangkang" style="rhombus;whiteSpace=wrap;html=1;rounded=0;" vertex="1" parent="k2lOzBCthUA0DbRwTOOI-1">
          <mxGeometry x="230" y="400" width="100" height="80" as="geometry" />
        </mxCell>
        <mxCell id="l17dxkoL9CuM4ShfzCYQ-15" style="edgeStyle=orthogonalEdgeStyle;rounded=0;orthogonalLoop=1;jettySize=auto;html=1;exitX=0.5;exitY=1;exitDx=0;exitDy=0;" edge="1" parent="k2lOzBCthUA0DbRwTOOI-1" source="l17dxkoL9CuM4ShfzCYQ-16" target="l17dxkoL9CuM4ShfzCYQ-19">
          <mxGeometry relative="1" as="geometry" />
        </mxCell>
        <mxCell id="l17dxkoL9CuM4ShfzCYQ-16" value="Biji Pala" style="ellipse;whiteSpace=wrap;html=1;aspect=fixed;rounded=0;" vertex="1" parent="k2lOzBCthUA0DbRwTOOI-1">
          <mxGeometry x="350" y="460" width="80" height="80" as="geometry" />
        </mxCell>
        <mxCell id="l17dxkoL9CuM4ShfzCYQ-18" value="" style="edgeStyle=orthogonalEdgeStyle;rounded=0;orthogonalLoop=1;jettySize=auto;html=1;" edge="1" parent="k2lOzBCthUA0DbRwTOOI-1" source="l17dxkoL9CuM4ShfzCYQ-19" target="l17dxkoL9CuM4ShfzCYQ-20">
          <mxGeometry relative="1" as="geometry" />
        </mxCell>
        <mxCell id="l17dxkoL9CuM4ShfzCYQ-19" value="Pengelompokan mutu biji pala&amp;nbsp;" style="rounded=1;whiteSpace=wrap;html=1;" vertex="1" parent="k2lOzBCthUA0DbRwTOOI-1">
          <mxGeometry x="330" y="570" width="120" height="60" as="geometry" />
        </mxCell>
        <mxCell id="l17dxkoL9CuM4ShfzCYQ-20" value="Pengemasan, Pelabelan &amp;amp; Penyimpanan Biji Pala" style="rounded=1;whiteSpace=wrap;html=1;" vertex="1" parent="k2lOzBCthUA0DbRwTOOI-1">
          <mxGeometry x="330" y="650" width="120" height="60" as="geometry" />
        </mxCell>
        <mxCell id="l17dxkoL9CuM4ShfzCYQ-21" value="Pengemasan, Pelabelan &amp;amp; Penyimpanan fuli" style="rounded=1;whiteSpace=wrap;html=1;" vertex="1" parent="k2lOzBCthUA0DbRwTOOI-1">
          <mxGeometry x="540" y="650" width="120" height="60" as="geometry" />
        </mxCell>
        <mxCell id="l17dxkoL9CuM4ShfzCYQ-22" value="SOP Pengelompokan pala dan fuli" style="text;html=1;strokeColor=none;fillColor=none;align=center;verticalAlign=middle;whiteSpace=wrap;rounded=0;" vertex="1" parent="k2lOzBCthUA0DbRwTOOI-1">
          <mxGeometry x="390" y="335" width="110" height="30" as="geometry" />
        </mxCell>
        <mxCell id="l17dxkoL9CuM4ShfzCYQ-23" value="SOP Pengelompokan biji pala" style="text;html=1;strokeColor=none;fillColor=none;align=center;verticalAlign=middle;whiteSpace=wrap;rounded=0;" vertex="1" parent="k2lOzBCthUA0DbRwTOOI-1">
          <mxGeometry x="450" y="585" width="130" height="30" as="geometry" />
        </mxCell>
        <mxCell id="l17dxkoL9CuM4ShfzCYQ-24" value="SOP Pengemasan, pelabelan dan penyimpanan" style="text;html=1;strokeColor=none;fillColor=none;align=center;verticalAlign=middle;whiteSpace=wrap;rounded=0;" vertex="1" parent="k2lOzBCthUA0DbRwTOOI-1">
          <mxGeometry x="630" y="720" width="130" height="30" as="geometry" />
        </mxCell>
        <mxCell id="l17dxkoL9CuM4ShfzCYQ-25" value="SOP Pengemasan, pelabelan dan penyimpanan" style="text;html=1;strokeColor=none;fillColor=none;align=center;verticalAlign=middle;whiteSpace=wrap;rounded=0;" vertex="1" parent="k2lOzBCthUA0DbRwTOOI-1">
          <mxGeometry x="410" y="720" width="130" height="30" as="geometry" />
        </mxCell>
        <mxCell id="l17dxkoL9CuM4ShfzCYQ-26" value="SOP Pengemasan, pelabelan dan penyimpanan" style="text;html=1;strokeColor=none;fillColor=none;align=center;verticalAlign=middle;whiteSpace=wrap;rounded=0;" vertex="1" parent="k2lOzBCthUA0DbRwTOOI-1">
          <mxGeometry x="180" y="720" width="130" height="30" as="geometry" />
        </mxCell>
        <mxCell id="QGE8P0rNUXDMbXsNLgXJ-5" style="edgeStyle=orthogonalEdgeStyle;rounded=0;orthogonalLoop=1;jettySize=auto;html=1;exitX=0.5;exitY=1;exitDx=0;exitDy=0;entryX=0.5;entryY=0;entryDx=0;entryDy=0;" edge="1" parent="k2lOzBCthUA0DbRwTOOI-1" source="QGE8P0rNUXDMbXsNLgXJ-2" target="QGE8P0rNUXDMbXsNLgXJ-4">
          <mxGeometry relative="1" as="geometry" />
        </mxCell>
        <mxCell id="QGE8P0rNUXDMbXsNLgXJ-2" value="Biji Pala" style="ellipse;whiteSpace=wrap;html=1;aspect=fixed;rounded=0;" vertex="1" parent="k2lOzBCthUA0DbRwTOOI-1">
          <mxGeometry x="130" y="460" width="80" height="80" as="geometry" />
        </mxCell>
        <mxCell id="QGE8P0rNUXDMbXsNLgXJ-4" value="Pengemasan, Pelabelan &amp;amp; Penyimpanan Biji Pala" style="rounded=1;whiteSpace=wrap;html=1;" vertex="1" parent="k2lOzBCthUA0DbRwTOOI-1">
          <mxGeometry x="110" y="650" width="120" height="60" as="geometry" />
        </mxCell>
      </root>
    </mxGraphModel>
  </diagram>
</mxfile>
